<svg width="507" height="198" viewBox="0 0 507 198" fill="none" xmlns="http://www.w3.org/2000/svg">
<path d="M4.392 40.36C3.672 40.36 3.096 40.168 2.664 39.784C2.232 39.4 2.016 38.872 2.016 38.2V20.128C2.016 18.448 2.496 17.14 3.456 16.204C4.44 15.268 5.796 14.8 7.524 14.8H18.72C19.44 14.8 19.992 14.968 20.376 15.304C20.76 15.616 20.952 16.072 20.952 16.672C20.952 17.248 20.748 17.704 20.34 18.04C19.956 18.352 19.416 18.508 18.72 18.508H8.352C7.872 18.508 7.488 18.664 7.2 18.976C6.936 19.288 6.804 19.72 6.804 20.272V25.636H15.984C16.704 25.636 17.256 25.804 17.64 26.14C18.024 26.452 18.216 26.908 18.216 27.508C18.216 28.084 18.012 28.54 17.604 28.876C17.22 29.188 16.68 29.344 15.984 29.344H6.804V38.2C6.804 38.848 6.576 39.376 6.12 39.784C5.688 40.168 5.112 40.36 4.392 40.36ZM25.2447 19.768C24.3567 19.768 23.6367 19.528 23.0847 19.048C22.5567 18.544 22.2927 17.896 22.2927 17.104C22.2927 16.312 22.5567 15.676 23.0847 15.196C23.6367 14.692 24.3567 14.44 25.2447 14.44C26.1327 14.44 26.8527 14.692 27.4047 15.196C27.9807 15.676 28.2687 16.312 28.2687 17.104C28.2687 17.896 27.9807 18.544 27.4047 19.048C26.8527 19.528 26.1327 19.768 25.2447 19.768ZM25.2807 40.36C24.5367 40.36 23.9607 40.168 23.5527 39.784C23.1447 39.4 22.9407 38.872 22.9407 38.2V24.16C22.9407 23.488 23.1447 22.96 23.5527 22.576C23.9607 22.192 24.5367 22 25.2807 22C26.0007 22 26.5767 22.192 27.0087 22.576C27.4407 22.96 27.6567 23.488 27.6567 24.16V38.2C27.6567 38.872 27.4407 39.4 27.0087 39.784C26.5767 40.168 26.0007 40.36 25.2807 40.36ZM33.914 40.36C33.17 40.36 32.594 40.168 32.186 39.784C31.778 39.4 31.574 38.872 31.574 38.2V24.16C31.574 23.464 31.766 22.936 32.15 22.576C32.558 22.192 33.122 22 33.842 22C34.562 22 35.126 22.192 35.534 22.576C35.942 22.96 36.146 23.488 36.146 24.16V25.204C37.85 23.068 40.178 22 43.13 22C45.434 22 47.246 22.732 48.566 24.196C49.91 25.636 50.582 27.604 50.582 30.1V38.2C50.582 38.872 50.366 39.4 49.934 39.784C49.502 40.168 48.926 40.36 48.206 40.36C47.462 40.36 46.886 40.168 46.478 39.784C46.07 39.4 45.866 38.872 45.866 38.2V30.1C45.866 28.732 45.53 27.664 44.858 26.896C44.186 26.128 43.25 25.744 42.05 25.744C40.226 25.744 38.81 26.284 37.802 27.364C36.794 28.42 36.29 29.908 36.29 31.828V38.2C36.29 38.872 36.074 39.4 35.642 39.784C35.21 40.168 34.634 40.36 33.914 40.36ZM62.9744 40.36C61.1024 40.36 59.4344 40 57.9704 39.28C56.5304 38.536 55.4024 37.468 54.5864 36.076C53.7704 34.684 53.3624 33.052 53.3624 31.18C53.3624 29.308 53.7464 27.688 54.5144 26.32C55.3064 24.928 56.4344 23.86 57.8984 23.116C59.3624 22.372 61.0904 22 63.0824 22C64.5464 22 65.7824 22.24 66.7904 22.72C67.7984 23.176 68.7464 23.872 69.6344 24.808L69.6704 14.836C69.6704 14.164 69.8864 13.636 70.3184 13.252C70.7504 12.868 71.3264 12.676 72.0464 12.676C72.7664 12.676 73.3304 12.868 73.7384 13.252C74.1704 13.612 74.3864 14.14 74.3864 14.836V38.2C74.3864 38.896 74.1704 39.436 73.7384 39.82C73.3304 40.18 72.7664 40.36 72.0464 40.36C71.3264 40.36 70.7504 40.168 70.3184 39.784C69.8864 39.4 69.6704 38.872 69.6704 38.2V37.48C68.0624 39.4 65.8304 40.36 62.9744 40.36ZM63.6944 36.616C65.5664 36.616 67.0304 36.136 68.0864 35.176C69.1424 34.216 69.6704 32.884 69.6704 31.18C69.6704 29.476 69.1424 28.144 68.0864 27.184C67.0304 26.224 65.5664 25.744 63.6944 25.744C61.9424 25.744 60.5744 26.224 59.5904 27.184C58.6064 28.144 58.1144 29.476 58.1144 31.18C58.1144 32.884 58.6064 34.216 59.5904 35.176C60.5744 36.136 61.9424 36.616 63.6944 36.616ZM102.02 35.356C102.404 35.668 102.596 36.052 102.596 36.508C102.596 36.964 102.428 37.432 102.092 37.912C101.564 38.68 100.82 39.28 99.8598 39.712C98.8998 40.144 97.8198 40.36 96.6198 40.36C94.6998 40.36 93.1878 39.844 92.0838 38.812C91.0038 37.756 90.4638 36.316 90.4638 34.492V26.068H88.9878C88.2678 26.068 87.6918 25.9 87.2598 25.564C86.8278 25.228 86.6118 24.784 86.6118 24.232C86.6118 23.656 86.8158 23.2 87.2238 22.864C87.6558 22.528 88.2438 22.36 88.9878 22.36H90.4638V16.924C90.4638 16.252 90.6798 15.724 91.1118 15.34C91.5438 14.956 92.1198 14.764 92.8398 14.764C93.5838 14.764 94.1598 14.956 94.5678 15.34C94.9758 15.724 95.1798 16.252 95.1798 16.924V22.36H98.6358C99.3798 22.36 99.9558 22.528 100.364 22.864C100.796 23.2 101.012 23.656 101.012 24.232C101.012 24.784 100.796 25.228 100.364 25.564C99.9558 25.9 99.3798 26.068 98.6358 26.068H95.1798V34.888C95.1798 35.416 95.3358 35.836 95.6478 36.148C95.9838 36.46 96.4278 36.616 96.9798 36.616C97.4118 36.616 97.7838 36.556 98.0958 36.436C98.4318 36.292 98.7678 36.064 99.1038 35.752C99.7278 35.152 100.304 34.852 100.832 34.852C101.216 34.852 101.612 35.02 102.02 35.356ZM107.531 40.36C106.787 40.36 106.211 40.168 105.803 39.784C105.395 39.4 105.191 38.872 105.191 38.2V14.836C105.191 14.164 105.395 13.636 105.803 13.252C106.211 12.868 106.787 12.676 107.531 12.676C108.251 12.676 108.827 12.868 109.259 13.252C109.691 13.636 109.907 14.164 109.907 14.836V25.204C110.795 24.1 111.791 23.296 112.895 22.792C113.999 22.264 115.283 22 116.747 22C119.051 22 120.863 22.732 122.183 24.196C123.527 25.636 124.199 27.604 124.199 30.1V38.2C124.199 38.872 123.983 39.4 123.551 39.784C123.119 40.168 122.543 40.36 121.823 40.36C121.079 40.36 120.503 40.168 120.095 39.784C119.687 39.4 119.483 38.872 119.483 38.2V30.1C119.483 28.732 119.147 27.664 118.475 26.896C117.803 26.128 116.867 25.744 115.667 25.744C113.843 25.744 112.427 26.284 111.419 27.364C110.411 28.42 109.907 29.908 109.907 31.828V38.2C109.907 38.872 109.691 39.4 109.259 39.784C108.827 40.168 108.251 40.36 107.531 40.36ZM137.168 40.36C135.104 40.36 133.304 39.988 131.768 39.244C130.232 38.5 129.044 37.456 128.204 36.112C127.388 34.744 126.98 33.148 126.98 31.324C126.98 28.372 127.832 26.08 129.536 24.448C131.264 22.816 133.688 22 136.808 22C138.728 22 140.42 22.3 141.884 22.9C143.372 23.5 144.524 24.34 145.34 25.42C146.18 26.476 146.6 27.688 146.6 29.056C146.6 30.208 146.228 31.096 145.484 31.72C144.764 32.344 143.732 32.656 142.388 32.656H131.552C131.552 34 132.02 35.02 132.956 35.716C133.916 36.388 135.32 36.724 137.168 36.724C139.112 36.724 140.768 36.292 142.136 35.428C142.904 34.948 143.504 34.708 143.936 34.708C144.344 34.708 144.74 34.9 145.124 35.284C145.532 35.692 145.736 36.136 145.736 36.616C145.736 37.192 145.496 37.648 145.016 37.984C144.008 38.752 142.832 39.34 141.488 39.748C140.144 40.156 138.704 40.36 137.168 40.36ZM140.948 29.344C141.356 29.344 141.644 29.272 141.812 29.128C141.98 28.96 142.064 28.696 142.064 28.336C142.064 27.496 141.584 26.836 140.624 26.356C139.688 25.876 138.416 25.636 136.808 25.636C135.2 25.636 133.928 25.972 132.992 26.644C132.08 27.316 131.624 28.216 131.624 29.344H140.948ZM161.531 40.36C160.787 40.36 160.211 40.168 159.803 39.784C159.395 39.4 159.191 38.872 159.191 38.2V24.16C159.191 23.464 159.383 22.936 159.767 22.576C160.175 22.192 160.739 22 161.459 22C162.179 22 162.743 22.192 163.151 22.576C163.559 22.96 163.763 23.488 163.763 24.16V25.348C164.507 24.388 165.371 23.656 166.355 23.152C167.363 22.624 168.443 22.36 169.595 22.36H170.387C171.155 22.36 171.743 22.528 172.151 22.864C172.583 23.176 172.799 23.632 172.799 24.232C172.799 24.832 172.583 25.3 172.151 25.636C171.743 25.948 171.155 26.104 170.387 26.104H169.163C167.555 26.104 166.271 26.62 165.311 27.652C164.375 28.66 163.907 30.052 163.907 31.828V38.2C163.907 38.872 163.691 39.4 163.259 39.784C162.827 40.168 162.251 40.36 161.531 40.36ZM177.085 19.768C176.197 19.768 175.477 19.528 174.925 19.048C174.397 18.544 174.133 17.896 174.133 17.104C174.133 16.312 174.397 15.676 174.925 15.196C175.477 14.692 176.197 14.44 177.085 14.44C177.973 14.44 178.693 14.692 179.245 15.196C179.821 15.676 180.109 16.312 180.109 17.104C180.109 17.896 179.821 18.544 179.245 19.048C178.693 19.528 177.973 19.768 177.085 19.768ZM177.121 40.36C176.377 40.36 175.801 40.168 175.393 39.784C174.985 39.4 174.781 38.872 174.781 38.2V24.16C174.781 23.488 174.985 22.96 175.393 22.576C175.801 22.192 176.377 22 177.121 22C177.841 22 178.417 22.192 178.849 22.576C179.281 22.96 179.497 23.488 179.497 24.16V38.2C179.497 38.872 179.281 39.4 178.849 39.784C178.417 40.168 177.841 40.36 177.121 40.36ZM193.782 49C191.91 49 190.182 48.724 188.598 48.172C187.038 47.62 185.814 46.864 184.926 45.904C184.59 45.544 184.422 45.136 184.422 44.68C184.422 44.08 184.71 43.54 185.286 43.06C185.646 42.772 186.03 42.628 186.438 42.628C187.062 42.628 187.758 42.976 188.526 43.672C189.102 44.2 189.822 44.608 190.686 44.896C191.574 45.208 192.522 45.364 193.53 45.364C195.402 45.364 196.854 44.8 197.886 43.672C198.918 42.544 199.41 40.984 199.362 38.992L199.326 37.552C198.51 38.512 197.55 39.22 196.446 39.676C195.366 40.132 194.034 40.36 192.45 40.36C189.498 40.36 187.194 39.556 185.538 37.948C183.882 36.316 183.054 34.06 183.054 31.18C183.054 28.3 183.894 26.056 185.574 24.448C187.278 22.816 189.642 22 192.666 22C193.914 22 195.114 22.252 196.266 22.756C197.418 23.26 198.45 23.968 199.362 24.88V24.16C199.362 23.488 199.578 22.96 200.01 22.576C200.442 22.192 201.018 22 201.738 22C202.458 22 203.022 22.192 203.43 22.576C203.862 22.936 204.078 23.464 204.078 24.16V38.992C204.078 40.912 203.658 42.628 202.818 44.14C202.002 45.652 200.814 46.84 199.254 47.704C197.718 48.568 195.894 49 193.782 49ZM193.386 36.616C195.258 36.616 196.722 36.136 197.778 35.176C198.834 34.216 199.362 32.884 199.362 31.18C199.362 29.476 198.834 28.144 197.778 27.184C196.722 26.224 195.258 25.744 193.386 25.744C191.634 25.744 190.266 26.224 189.282 27.184C188.298 28.144 187.806 29.476 187.806 31.18C187.806 32.884 188.298 34.216 189.282 35.176C190.266 36.136 191.634 36.616 193.386 36.616ZM209.73 40.36C208.986 40.36 208.41 40.168 208.002 39.784C207.594 39.4 207.39 38.872 207.39 38.2V14.836C207.39 14.164 207.594 13.636 208.002 13.252C208.41 12.868 208.986 12.676 209.73 12.676C210.45 12.676 211.026 12.868 211.458 13.252C211.89 13.636 212.106 14.164 212.106 14.836V25.204C212.994 24.1 213.99 23.296 215.094 22.792C216.198 22.264 217.482 22 218.946 22C221.25 22 223.062 22.732 224.382 24.196C225.726 25.636 226.398 27.604 226.398 30.1V38.2C226.398 38.872 226.182 39.4 225.75 39.784C225.318 40.168 224.742 40.36 224.022 40.36C223.278 40.36 222.702 40.168 222.294 39.784C221.886 39.4 221.682 38.872 221.682 38.2V30.1C221.682 28.732 221.346 27.664 220.674 26.896C220.002 26.128 219.066 25.744 217.866 25.744C216.042 25.744 214.626 26.284 213.618 27.364C212.61 28.42 212.106 29.908 212.106 31.828V38.2C212.106 38.872 211.89 39.4 211.458 39.784C211.026 40.168 210.45 40.36 209.73 40.36ZM244.227 35.356C244.611 35.668 244.803 36.052 244.803 36.508C244.803 36.964 244.635 37.432 244.299 37.912C243.771 38.68 243.027 39.28 242.067 39.712C241.107 40.144 240.027 40.36 238.827 40.36C236.907 40.36 235.395 39.844 234.291 38.812C233.211 37.756 232.671 36.316 232.671 34.492V26.068H231.195C230.475 26.068 229.899 25.9 229.467 25.564C229.035 25.228 228.819 24.784 228.819 24.232C228.819 23.656 229.023 23.2 229.431 22.864C229.863 22.528 230.451 22.36 231.195 22.36H232.671V16.924C232.671 16.252 232.887 15.724 233.319 15.34C233.751 14.956 234.327 14.764 235.047 14.764C235.791 14.764 236.367 14.956 236.775 15.34C237.183 15.724 237.387 16.252 237.387 16.924V22.36H240.843C241.587 22.36 242.163 22.528 242.571 22.864C243.003 23.2 243.219 23.656 243.219 24.232C243.219 24.784 243.003 25.228 242.571 25.564C242.163 25.9 241.587 26.068 240.843 26.068H237.387V34.888C237.387 35.416 237.543 35.836 237.855 36.148C238.191 36.46 238.635 36.616 239.187 36.616C239.619 36.616 239.991 36.556 240.303 36.436C240.639 36.292 240.975 36.064 241.311 35.752C241.935 35.152 242.511 34.852 243.039 34.852C243.423 34.852 243.819 35.02 244.227 35.356ZM259.983 19.768C259.095 19.768 258.375 19.528 257.823 19.048C257.295 18.544 257.031 17.896 257.031 17.104C257.031 16.312 257.295 15.676 257.823 15.196C258.375 14.692 259.095 14.44 259.983 14.44C260.871 14.44 261.591 14.692 262.143 15.196C262.719 15.676 263.007 16.312 263.007 17.104C263.007 17.896 262.719 18.544 262.143 19.048C261.591 19.528 260.871 19.768 259.983 19.768ZM260.019 40.36C259.275 40.36 258.699 40.168 258.291 39.784C257.883 39.4 257.679 38.872 257.679 38.2V24.16C257.679 23.488 257.883 22.96 258.291 22.576C258.699 22.192 259.275 22 260.019 22C260.739 22 261.315 22.192 261.747 22.576C262.179 22.96 262.395 23.488 262.395 24.16V38.2C262.395 38.872 262.179 39.4 261.747 39.784C261.315 40.168 260.739 40.36 260.019 40.36ZM268.652 40.36C267.908 40.36 267.332 40.168 266.924 39.784C266.516 39.4 266.312 38.872 266.312 38.2V24.16C266.312 23.464 266.504 22.936 266.888 22.576C267.296 22.192 267.86 22 268.58 22C269.3 22 269.864 22.192 270.272 22.576C270.68 22.96 270.884 23.488 270.884 24.16V25.204C272.588 23.068 274.916 22 277.868 22C280.172 22 281.984 22.732 283.304 24.196C284.648 25.636 285.32 27.604 285.32 30.1V38.2C285.32 38.872 285.104 39.4 284.672 39.784C284.24 40.168 283.664 40.36 282.944 40.36C282.2 40.36 281.624 40.168 281.216 39.784C280.808 39.4 280.604 38.872 280.604 38.2V30.1C280.604 28.732 280.268 27.664 279.596 26.896C278.924 26.128 277.988 25.744 276.788 25.744C274.964 25.744 273.548 26.284 272.54 27.364C271.532 28.42 271.028 29.908 271.028 31.828V38.2C271.028 38.872 270.812 39.4 270.38 39.784C269.948 40.168 269.372 40.36 268.652 40.36ZM293.285 40.36C292.565 40.36 291.989 40.168 291.557 39.784C291.125 39.4 290.909 38.872 290.909 38.2V25.996H290.261C289.541 25.996 288.941 25.84 288.461 25.528C287.981 25.216 287.741 24.772 287.741 24.196C287.741 23.596 287.981 23.14 288.461 22.828C288.941 22.516 289.541 22.36 290.261 22.36H290.909V20.956C290.909 18.628 291.665 16.792 293.177 15.448C294.713 14.08 296.789 13.396 299.405 13.396C302.501 13.396 305.105 14.308 307.217 16.132C307.745 16.588 308.117 17.032 308.333 17.464C308.573 17.872 308.693 18.34 308.693 18.868V38.2C308.693 38.872 308.477 39.4 308.045 39.784C307.613 40.168 307.037 40.36 306.317 40.36C305.597 40.36 305.021 40.18 304.589 39.82C304.181 39.436 303.977 38.896 303.977 38.2V25.996H295.625V38.2C295.625 38.896 295.409 39.436 294.977 39.82C294.569 40.18 294.005 40.36 293.285 40.36ZM303.977 22.36V18.544C302.681 17.608 301.157 17.14 299.405 17.14C296.885 17.14 295.625 18.364 295.625 20.812V22.36H303.977ZM320.387 40.36C317.915 40.36 315.983 39.652 314.591 38.236C313.223 36.796 312.539 34.804 312.539 32.26V24.16C312.539 23.488 312.755 22.96 313.187 22.576C313.619 22.192 314.195 22 314.915 22C315.659 22 316.235 22.192 316.643 22.576C317.051 22.96 317.255 23.488 317.255 24.16V32.26C317.255 33.628 317.615 34.696 318.335 35.464C319.079 36.232 320.111 36.616 321.431 36.616C323.135 36.616 324.455 36.076 325.391 34.996C326.351 33.916 326.831 32.428 326.831 30.532V24.16C326.831 23.488 327.047 22.96 327.479 22.576C327.911 22.192 328.487 22 329.207 22C329.951 22 330.527 22.192 330.935 22.576C331.343 22.96 331.547 23.488 331.547 24.16V38.2C331.547 38.896 331.343 39.436 330.935 39.82C330.551 40.18 329.999 40.36 329.279 40.36C328.559 40.36 327.995 40.168 327.587 39.784C327.179 39.4 326.975 38.872 326.975 38.2V37.156C326.087 38.26 325.103 39.076 324.023 39.604C322.967 40.108 321.755 40.36 320.387 40.36ZM344.695 40.36C342.631 40.36 340.831 39.988 339.295 39.244C337.759 38.5 336.571 37.456 335.731 36.112C334.915 34.744 334.507 33.148 334.507 31.324C334.507 28.372 335.359 26.08 337.063 24.448C338.791 22.816 341.215 22 344.335 22C346.255 22 347.947 22.3 349.411 22.9C350.899 23.5 352.051 24.34 352.867 25.42C353.707 26.476 354.127 27.688 354.127 29.056C354.127 30.208 353.755 31.096 353.011 31.72C352.291 32.344 351.259 32.656 349.915 32.656H339.079C339.079 34 339.547 35.02 340.483 35.716C341.443 36.388 342.847 36.724 344.695 36.724C346.639 36.724 348.295 36.292 349.663 35.428C350.431 34.948 351.031 34.708 351.463 34.708C351.871 34.708 352.267 34.9 352.651 35.284C353.059 35.692 353.263 36.136 353.263 36.616C353.263 37.192 353.023 37.648 352.543 37.984C351.535 38.752 350.359 39.34 349.015 39.748C347.671 40.156 346.231 40.36 344.695 40.36ZM348.475 29.344C348.883 29.344 349.171 29.272 349.339 29.128C349.507 28.96 349.591 28.696 349.591 28.336C349.591 27.496 349.111 26.836 348.151 26.356C347.215 25.876 345.943 25.636 344.335 25.636C342.727 25.636 341.455 25.972 340.519 26.644C339.607 27.316 339.151 28.216 339.151 29.344H348.475ZM359.426 40.36C358.682 40.36 358.106 40.168 357.698 39.784C357.29 39.4 357.086 38.872 357.086 38.2V24.16C357.086 23.464 357.278 22.936 357.662 22.576C358.07 22.192 358.634 22 359.354 22C360.074 22 360.638 22.192 361.046 22.576C361.454 22.96 361.658 23.488 361.658 24.16V25.204C363.362 23.068 365.69 22 368.642 22C370.946 22 372.758 22.732 374.078 24.196C375.422 25.636 376.094 27.604 376.094 30.1V38.2C376.094 38.872 375.878 39.4 375.446 39.784C375.014 40.168 374.438 40.36 373.718 40.36C372.974 40.36 372.398 40.168 371.99 39.784C371.582 39.4 371.378 38.872 371.378 38.2V30.1C371.378 28.732 371.042 27.664 370.37 26.896C369.698 26.128 368.762 25.744 367.562 25.744C365.738 25.744 364.322 26.284 363.314 27.364C362.306 28.42 361.802 29.908 361.802 31.828V38.2C361.802 38.872 361.586 39.4 361.154 39.784C360.722 40.168 360.146 40.36 359.426 40.36ZM389.026 40.36C385.81 40.36 383.314 39.556 381.538 37.948C379.762 36.316 378.874 34.048 378.874 31.144C378.874 28.24 379.762 25.996 381.538 24.412C383.314 22.804 385.81 22 389.026 22C390.73 22 392.266 22.288 393.634 22.864C395.026 23.416 396.118 24.208 396.91 25.24C397.198 25.6 397.342 25.984 397.342 26.392C397.342 27.016 397.018 27.568 396.37 28.048C396.082 28.264 395.722 28.372 395.29 28.372C394.954 28.372 394.606 28.3 394.246 28.156C393.886 27.988 393.574 27.76 393.31 27.472C392.83 26.92 392.206 26.5 391.438 26.212C390.694 25.9 389.89 25.744 389.026 25.744C387.322 25.744 385.99 26.224 385.03 27.184C384.094 28.12 383.626 29.44 383.626 31.144C383.626 32.896 384.094 34.252 385.03 35.212C385.99 36.148 387.322 36.616 389.026 36.616C390.922 36.616 392.542 35.98 393.886 34.708C394.558 34.036 395.218 33.7 395.866 33.7C396.298 33.7 396.694 33.844 397.054 34.132C397.63 34.588 397.918 35.14 397.918 35.788C397.918 36.196 397.75 36.592 397.414 36.976C396.31 38.152 395.074 39.016 393.706 39.568C392.362 40.096 390.802 40.36 389.026 40.36ZM410.683 40.36C408.619 40.36 406.819 39.988 405.283 39.244C403.747 38.5 402.559 37.456 401.719 36.112C400.903 34.744 400.495 33.148 400.495 31.324C400.495 28.372 401.347 26.08 403.051 24.448C404.779 22.816 407.203 22 410.323 22C412.243 22 413.935 22.3 415.399 22.9C416.887 23.5 418.039 24.34 418.855 25.42C419.695 26.476 420.115 27.688 420.115 29.056C420.115 30.208 419.743 31.096 418.999 31.72C418.279 32.344 417.247 32.656 415.903 32.656H405.067C405.067 34 405.535 35.02 406.471 35.716C407.431 36.388 408.835 36.724 410.683 36.724C412.627 36.724 414.283 36.292 415.651 35.428C416.419 34.948 417.019 34.708 417.451 34.708C417.859 34.708 418.255 34.9 418.639 35.284C419.047 35.692 419.251 36.136 419.251 36.616C419.251 37.192 419.011 37.648 418.531 37.984C417.523 38.752 416.347 39.34 415.003 39.748C413.659 40.156 412.219 40.36 410.683 40.36ZM414.463 29.344C414.871 29.344 415.159 29.272 415.327 29.128C415.495 28.96 415.579 28.696 415.579 28.336C415.579 27.496 415.099 26.836 414.139 26.356C413.203 25.876 411.931 25.636 410.323 25.636C408.715 25.636 407.443 25.972 406.507 26.644C405.595 27.316 405.139 28.216 405.139 29.344H414.463ZM425.414 40.36C424.67 40.36 424.094 40.168 423.686 39.784C423.278 39.4 423.074 38.872 423.074 38.2V24.16C423.074 23.464 423.266 22.936 423.65 22.576C424.058 22.192 424.622 22 425.342 22C426.062 22 426.626 22.192 427.034 22.576C427.442 22.96 427.646 23.488 427.646 24.16V25.348C428.39 24.388 429.254 23.656 430.238 23.152C431.246 22.624 432.326 22.36 433.478 22.36H434.27C435.038 22.36 435.626 22.528 436.034 22.864C436.466 23.176 436.682 23.632 436.682 24.232C436.682 24.832 436.466 25.3 436.034 25.636C435.626 25.948 435.038 26.104 434.27 26.104H433.046C431.438 26.104 430.154 26.62 429.194 27.652C428.258 28.66 427.79 30.052 427.79 31.828V38.2C427.79 38.872 427.574 39.4 427.142 39.784C426.71 40.168 426.134 40.36 425.414 40.36ZM446.763 40.36C442.899 40.36 440.055 39.244 438.231 37.012C437.847 36.508 437.655 36.052 437.655 35.644C437.655 35.068 437.955 34.564 438.555 34.132C438.963 33.868 439.359 33.736 439.743 33.736C440.271 33.736 440.763 33.964 441.219 34.42C442.035 35.236 442.827 35.824 443.595 36.184C444.387 36.52 445.359 36.688 446.511 36.688C447.495 36.688 448.323 36.556 448.995 36.292C449.667 36.028 450.003 35.704 450.003 35.32C450.003 34.84 449.727 34.432 449.175 34.096C448.623 33.76 447.507 33.328 445.827 32.8C443.187 31.984 441.315 31.132 440.211 30.244C439.107 29.332 438.555 28.204 438.555 26.86C438.555 25.348 439.203 24.16 440.499 23.296C441.795 22.432 443.583 22 445.863 22C447.615 22 449.199 22.264 450.615 22.792C452.031 23.32 453.063 24.028 453.711 24.916C454.023 25.324 454.179 25.732 454.179 26.14C454.179 26.716 453.891 27.184 453.315 27.544C452.907 27.808 452.487 27.94 452.055 27.94C451.359 27.94 450.723 27.652 450.147 27.076C449.667 26.62 449.043 26.272 448.275 26.032C447.531 25.792 446.715 25.672 445.827 25.672C444.147 25.672 443.307 26.068 443.307 26.86C443.307 27.172 443.439 27.448 443.703 27.688C443.967 27.928 444.435 28.18 445.107 28.444C445.803 28.708 446.883 29.068 448.347 29.524C450.699 30.244 452.343 31.036 453.279 31.9C454.239 32.764 454.719 33.904 454.719 35.32C454.719 36.832 454.023 38.056 452.631 38.992C451.239 39.904 449.283 40.36 446.763 40.36ZM4.608 73.768C3.72 73.768 3 73.528 2.448 73.048C1.92 72.544 1.656 71.896 1.656 71.104C1.656 70.312 1.92 69.676 2.448 69.196C3 68.692 3.72 68.44 4.608 68.44C5.496 68.44 6.216 68.692 6.768 69.196C7.344 69.676 7.632 70.312 7.632 71.104C7.632 71.896 7.344 72.544 6.768 73.048C6.216 73.528 5.496 73.768 4.608 73.768ZM4.644 94.36C3.9 94.36 3.324 94.168 2.916 93.784C2.508 93.4 2.304 92.872 2.304 92.2V78.16C2.304 77.488 2.508 76.96 2.916 76.576C3.324 76.192 3.9 76 4.644 76C5.364 76 5.94 76.192 6.372 76.576C6.804 76.96 7.02 77.488 7.02 78.16V92.2C7.02 92.872 6.804 93.4 6.372 93.784C5.94 94.168 5.364 94.36 4.644 94.36ZM13.2773 94.36C12.5333 94.36 11.9573 94.168 11.5493 93.784C11.1413 93.4 10.9373 92.872 10.9373 92.2V78.16C10.9373 77.464 11.1293 76.936 11.5133 76.576C11.9213 76.192 12.4853 76 13.2053 76C13.9253 76 14.4893 76.192 14.8973 76.576C15.3053 76.96 15.5093 77.488 15.5093 78.16V79.204C17.2133 77.068 19.5413 76 22.4933 76C24.7973 76 26.6093 76.732 27.9293 78.196C29.2733 79.636 29.9453 81.604 29.9453 84.1V92.2C29.9453 92.872 29.7293 93.4 29.2973 93.784C28.8653 94.168 28.2893 94.36 27.5693 94.36C26.8253 94.36 26.2493 94.168 25.8413 93.784C25.4333 93.4 25.2293 92.872 25.2293 92.2V84.1C25.2293 82.732 24.8933 81.664 24.2213 80.896C23.5493 80.128 22.6133 79.744 21.4133 79.744C19.5893 79.744 18.1733 80.284 17.1653 81.364C16.1573 82.42 15.6533 83.908 15.6533 85.828V92.2C15.6533 92.872 15.4373 93.4 15.0053 93.784C14.5733 94.168 13.9973 94.36 13.2773 94.36ZM48.8385 73.768C47.9505 73.768 47.2305 73.528 46.6785 73.048C46.1505 72.544 45.8865 71.896 45.8865 71.104C45.8865 70.312 46.1505 69.676 46.6785 69.196C47.2305 68.692 47.9505 68.44 48.8385 68.44C49.7265 68.44 50.4465 68.692 50.9985 69.196C51.5745 69.676 51.8625 70.312 51.8625 71.104C51.8625 71.896 51.5745 72.544 50.9985 73.048C50.4465 73.528 49.7265 73.768 48.8385 73.768ZM43.7985 104.512C43.1745 104.512 42.6585 104.332 42.2505 103.972C41.8425 103.612 41.6385 103.156 41.6385 102.604C41.6385 102.052 41.8425 101.596 42.2505 101.236C42.6585 100.9 43.1745 100.732 43.7985 100.732C44.5905 100.732 45.1665 100.648 45.5265 100.48C45.9105 100.312 46.1745 100 46.3185 99.544C46.4625 99.112 46.5345 98.416 46.5345 97.456V78.16C46.5345 77.488 46.7385 76.96 47.1465 76.576C47.5545 76.192 48.1305 76 48.8745 76C49.5945 76 50.1705 76.192 50.6025 76.576C51.0345 76.96 51.2505 77.488 51.2505 78.16V97.456C51.2505 99.832 50.6265 101.596 49.3785 102.748C48.1545 103.924 46.2945 104.512 43.7985 104.512ZM62.8318 94.36C60.3598 94.36 58.4278 93.652 57.0358 92.236C55.6678 90.796 54.9838 88.804 54.9838 86.26V78.16C54.9838 77.488 55.1998 76.96 55.6318 76.576C56.0638 76.192 56.6398 76 57.3598 76C58.1038 76 58.6798 76.192 59.0878 76.576C59.4958 76.96 59.6998 77.488 59.6998 78.16V86.26C59.6998 87.628 60.0598 88.696 60.7798 89.464C61.5238 90.232 62.5558 90.616 63.8758 90.616C65.5798 90.616 66.8998 90.076 67.8358 88.996C68.7958 87.916 69.2758 86.428 69.2758 84.532V78.16C69.2758 77.488 69.4918 76.96 69.9238 76.576C70.3558 76.192 70.9318 76 71.6518 76C72.3958 76 72.9718 76.192 73.3798 76.576C73.7878 76.96 73.9918 77.488 73.9918 78.16V92.2C73.9918 92.896 73.7878 93.436 73.3798 93.82C72.9958 94.18 72.4438 94.36 71.7238 94.36C71.0038 94.36 70.4398 94.168 70.0318 93.784C69.6238 93.4 69.4198 92.872 69.4198 92.2V91.156C68.5318 92.26 67.5478 93.076 66.4678 93.604C65.4118 94.108 64.1998 94.36 62.8318 94.36ZM86.0603 94.36C82.1963 94.36 79.3523 93.244 77.5283 91.012C77.1443 90.508 76.9523 90.052 76.9523 89.644C76.9523 89.068 77.2523 88.564 77.8523 88.132C78.2603 87.868 78.6563 87.736 79.0403 87.736C79.5683 87.736 80.0603 87.964 80.5163 88.42C81.3323 89.236 82.1243 89.824 82.8923 90.184C83.6843 90.52 84.6563 90.688 85.8083 90.688C86.7923 90.688 87.6203 90.556 88.2923 90.292C88.9643 90.028 89.3003 89.704 89.3003 89.32C89.3003 88.84 89.0243 88.432 88.4723 88.096C87.9203 87.76 86.8043 87.328 85.1243 86.8C82.4843 85.984 80.6123 85.132 79.5083 84.244C78.4043 83.332 77.8523 82.204 77.8523 80.86C77.8523 79.348 78.5003 78.16 79.7963 77.296C81.0923 76.432 82.8803 76 85.1602 76C86.9123 76 88.4963 76.264 89.9123 76.792C91.3283 77.32 92.3603 78.028 93.0083 78.916C93.3203 79.324 93.4763 79.732 93.4763 80.14C93.4763 80.716 93.1883 81.184 92.6123 81.544C92.2043 81.808 91.7843 81.94 91.3523 81.94C90.6563 81.94 90.0203 81.652 89.4443 81.076C88.9643 80.62 88.3403 80.272 87.5723 80.032C86.8283 79.792 86.0123 79.672 85.1243 79.672C83.4443 79.672 82.6043 80.068 82.6043 80.86C82.6043 81.172 82.7363 81.448 83.0003 81.688C83.2643 81.928 83.7323 82.18 84.4043 82.444C85.1003 82.708 86.1803 83.068 87.6443 83.524C89.9963 84.244 91.6403 85.036 92.5763 85.9C93.5363 86.764 94.0163 87.904 94.0163 89.32C94.0163 90.832 93.3203 92.056 91.9283 92.992C90.5363 93.904 88.5803 94.36 86.0603 94.36ZM111.653 89.356C112.037 89.668 112.229 90.052 112.229 90.508C112.229 90.964 112.061 91.432 111.725 91.912C111.197 92.68 110.453 93.28 109.493 93.712C108.533 94.144 107.453 94.36 106.253 94.36C104.333 94.36 102.821 93.844 101.717 92.812C100.637 91.756 100.097 90.316 100.097 88.492V80.068H98.6206C97.9006 80.068 97.3246 79.9 96.8926 79.564C96.4606 79.228 96.2446 78.784 96.2446 78.232C96.2446 77.656 96.4486 77.2 96.8566 76.864C97.2886 76.528 97.8766 76.36 98.6206 76.36H100.097V70.924C100.097 70.252 100.313 69.724 100.745 69.34C101.177 68.956 101.753 68.764 102.473 68.764C103.217 68.764 103.793 68.956 104.201 69.34C104.609 69.724 104.813 70.252 104.813 70.924V76.36H108.269C109.013 76.36 109.589 76.528 109.997 76.864C110.429 77.2 110.645 77.656 110.645 78.232C110.645 78.784 110.429 79.228 109.997 79.564C109.589 79.9 109.013 80.068 108.269 80.068H104.813V88.888C104.813 89.416 104.969 89.836 105.281 90.148C105.617 90.46 106.061 90.616 106.613 90.616C107.045 90.616 107.417 90.556 107.729 90.436C108.065 90.292 108.401 90.064 108.737 89.752C109.361 89.152 109.937 88.852 110.465 88.852C110.849 88.852 111.245 89.02 111.653 89.356Z" fill="#171717"/>
<path d="M188 156C194.458 156 199.917 155.896 204.375 155.688C208.875 155.479 212.604 155 215.562 154.25C218.521 153.458 220.833 152.292 222.5 150.75C224.167 149.208 225.396 147.104 226.188 144.438C227.021 141.771 227.521 138.458 227.688 134.5C227.896 130.5 228 125.667 228 120C224.75 121.958 220.542 123.458 215.375 124.5C210.208 125.5 203.75 126 196 126H175.938C166.938 126 159.583 125.375 153.875 124.125C148.167 122.875 143.688 121 140.438 118.5C137.229 116 135.021 112.875 133.812 109.125C132.604 105.375 132 101 132 96C132 91 132.604 86.625 133.812 82.875C135.021 79.125 137.229 76 140.438 73.5C143.688 71 148.167 69.125 153.875 67.875C159.583 66.625 166.938 66 175.938 66H196C203.333 66 209.5 66.4583 214.5 67.375C219.542 68.25 223.688 69.6042 226.938 71.4375C230.229 73.2292 232.75 75.5 234.5 78.25C236.25 81 237.521 84.2292 238.312 87.9375C239.146 91.6458 239.625 95.8333 239.75 100.5C239.917 105.167 240 110.333 240 116C240 122 239.917 127.417 239.75 132.25C239.583 137.042 239.021 141.292 238.062 145C237.104 148.667 235.583 151.833 233.5 154.5C231.417 157.167 228.438 159.354 224.562 161.062C220.729 162.729 215.833 163.958 209.875 164.75C203.958 165.583 196.667 166 188 166C180.667 166 174.292 165.729 168.875 165.188C163.458 164.646 158.812 163.833 154.938 162.75C151.104 161.667 147.958 160.333 145.5 158.75C143.042 157.167 141.104 155.333 139.688 153.25C138.312 151.167 137.354 148.854 136.812 146.312C136.312 143.771 136.062 141 136.062 138H146C146 139.667 146.125 141.271 146.375 142.812C146.625 144.354 147.167 145.792 148 147.125C148.875 148.458 150.208 149.667 152 150.75C153.792 151.833 156.229 152.771 159.312 153.562C162.438 154.354 166.333 154.958 171 155.375C175.667 155.792 181.333 156 188 156ZM196 116C202.542 116 207.896 115.854 212.062 115.562C216.229 115.271 219.479 114.583 221.812 113.5C224.188 112.417 225.812 110.812 226.688 108.688C227.562 106.562 228 103.667 228 100C228 95 227.562 90.9375 226.688 87.8125C225.812 84.6875 224.188 82.25 221.812 80.5C219.479 78.75 216.229 77.5625 212.062 76.9375C207.896 76.3125 202.542 76 196 76H175.938C171.271 76 167.229 76.125 163.812 76.375C160.438 76.625 157.562 77.0417 155.188 77.625C152.854 78.2083 150.938 79 149.438 80C147.979 81 146.833 82.25 146 83.75C145.208 85.2083 144.667 86.9583 144.375 89C144.125 91 144 93.3333 144 96C144 98.6667 144.146 101.021 144.438 103.062C144.729 105.062 145.271 106.812 146.062 108.312C146.896 109.771 148.042 111 149.5 112C150.958 113 152.875 113.792 155.25 114.375C157.625 114.958 160.5 115.375 163.875 115.625C167.25 115.875 171.271 116 175.938 116H196ZM324.062 66C331.396 66 337.562 66.4583 342.562 67.375C347.604 68.25 351.75 69.6042 355 71.4375C358.25 73.2292 360.75 75.5 362.5 78.25C364.25 81 365.521 84.2292 366.312 87.9375C367.146 91.6458 367.625 95.8333 367.75 100.5C367.917 105.167 368 110.333 368 116C368 121.667 367.917 126.833 367.75 131.5C367.625 136.167 367.146 140.354 366.312 144.062C365.521 147.771 364.25 151 362.5 153.75C360.75 156.5 358.25 158.792 355 160.625C351.75 162.417 347.604 163.75 342.562 164.625C337.562 165.542 331.396 166 324.062 166H300C292.667 166 286.479 165.542 281.438 164.625C276.438 163.75 272.312 162.417 269.062 160.625C265.812 158.792 263.292 156.5 261.5 153.75C259.75 151 258.458 147.771 257.625 144.062C256.833 140.354 256.375 136.167 256.25 131.5C256.125 126.833 256.062 121.667 256.062 116C256.062 110.333 256.125 105.167 256.25 100.5C256.375 95.8333 256.833 91.6458 257.625 87.9375C258.458 84.2292 259.75 81 261.5 78.25C263.292 75.5 265.812 73.2292 269.062 71.4375C272.312 69.6042 276.438 68.25 281.438 67.375C286.479 66.4583 292.667 66 300 66H324.062ZM324.062 156C329.396 156 333.875 155.854 337.5 155.562C341.125 155.229 344.125 154.583 346.5 153.625C348.875 152.667 350.708 151.292 352 149.5C353.292 147.708 354.229 145.333 354.812 142.375C355.396 139.417 355.729 135.792 355.812 131.5C355.938 127.167 356 122 356 116C356 110 355.938 104.854 355.812 100.562C355.729 96.2292 355.396 92.5833 354.812 89.625C354.229 86.6667 353.292 84.2917 352 82.5C350.708 80.7083 348.875 79.3333 346.5 78.375C344.167 77.4167 341.167 76.7917 337.5 76.5C333.875 76.1667 329.396 76 324.062 76H300C294.667 76 290.167 76.1667 286.5 76.5C282.875 76.7917 279.875 77.4167 277.5 78.375C275.125 79.3333 273.292 80.7083 272 82.5C270.708 84.2917 269.771 86.6667 269.188 89.625C268.604 92.5833 268.271 96.2292 268.188 100.562C268.104 104.854 268.062 110 268.062 116C268.062 122 268.104 127.167 268.188 131.5C268.312 135.792 268.667 139.417 269.25 142.375C269.833 145.333 270.75 147.708 272 149.5C273.292 151.292 275.125 152.667 277.5 153.625C279.875 154.583 282.875 155.229 286.5 155.562C290.167 155.854 294.667 156 300 156H324.062Z" fill="#9EDF11"/>
<rect x="313" y="94" width="194" height="41" fill="#F5F5F5"/>
<path d="M333.037 126.36C329.173 126.36 326.329 125.244 324.505 123.012C324.121 122.508 323.929 122.052 323.929 121.644C323.929 121.068 324.229 120.564 324.829 120.132C325.237 119.868 325.633 119.736 326.017 119.736C326.545 119.736 327.037 119.964 327.493 120.42C328.309 121.236 329.101 121.824 329.869 122.184C330.661 122.52 331.633 122.688 332.785 122.688C333.769 122.688 334.597 122.556 335.269 122.292C335.941 122.028 336.277 121.704 336.277 121.32C336.277 120.84 336.001 120.432 335.449 120.096C334.897 119.76 333.781 119.328 332.101 118.8C329.461 117.984 327.589 117.132 326.485 116.244C325.381 115.332 324.829 114.204 324.829 112.86C324.829 111.348 325.477 110.16 326.773 109.296C328.069 108.432 329.857 108 332.137 108C333.889 108 335.473 108.264 336.889 108.792C338.305 109.32 339.337 110.028 339.985 110.916C340.297 111.324 340.453 111.732 340.453 112.14C340.453 112.716 340.165 113.184 339.589 113.544C339.181 113.808 338.761 113.94 338.329 113.94C337.633 113.94 336.997 113.652 336.421 113.076C335.941 112.62 335.317 112.272 334.549 112.032C333.805 111.792 332.989 111.672 332.101 111.672C330.421 111.672 329.581 112.068 329.581 112.86C329.581 113.172 329.713 113.448 329.977 113.688C330.241 113.928 330.709 114.18 331.381 114.444C332.077 114.708 333.157 115.068 334.621 115.524C336.973 116.244 338.617 117.036 339.553 117.9C340.513 118.764 340.993 119.904 340.993 121.32C340.993 122.832 340.297 124.056 338.905 124.992C337.513 125.904 335.557 126.36 333.037 126.36ZM353.769 126.36C351.705 126.36 349.905 125.988 348.369 125.244C346.833 124.5 345.645 123.456 344.805 122.112C343.989 120.744 343.581 119.148 343.581 117.324C343.581 114.372 344.433 112.08 346.137 110.448C347.865 108.816 350.289 108 353.409 108C355.329 108 357.021 108.3 358.485 108.9C359.973 109.5 361.125 110.34 361.941 111.42C362.781 112.476 363.201 113.688 363.201 115.056C363.201 116.208 362.829 117.096 362.085 117.72C361.365 118.344 360.333 118.656 358.989 118.656H348.153C348.153 120 348.621 121.02 349.557 121.716C350.517 122.388 351.921 122.724 353.769 122.724C355.713 122.724 357.369 122.292 358.737 121.428C359.505 120.948 360.105 120.708 360.537 120.708C360.945 120.708 361.341 120.9 361.725 121.284C362.133 121.692 362.337 122.136 362.337 122.616C362.337 123.192 362.097 123.648 361.617 123.984C360.609 124.752 359.433 125.34 358.089 125.748C356.745 126.156 355.305 126.36 353.769 126.36ZM357.549 115.344C357.957 115.344 358.245 115.272 358.413 115.128C358.581 114.96 358.665 114.696 358.665 114.336C358.665 113.496 358.185 112.836 357.225 112.356C356.289 111.876 355.017 111.636 353.409 111.636C351.801 111.636 350.529 111.972 349.593 112.644C348.681 113.316 348.225 114.216 348.225 115.344H357.549ZM375.952 126.36C372.736 126.36 370.24 125.556 368.464 123.948C366.688 122.316 365.8 120.048 365.8 117.144C365.8 114.24 366.688 111.996 368.464 110.412C370.24 108.804 372.736 108 375.952 108C377.656 108 379.192 108.288 380.56 108.864C381.952 109.416 383.044 110.208 383.836 111.24C384.124 111.6 384.268 111.984 384.268 112.392C384.268 113.016 383.944 113.568 383.296 114.048C383.008 114.264 382.648 114.372 382.216 114.372C381.88 114.372 381.532 114.3 381.172 114.156C380.812 113.988 380.5 113.76 380.236 113.472C379.756 112.92 379.132 112.5 378.364 112.212C377.62 111.9 376.816 111.744 375.952 111.744C374.248 111.744 372.916 112.224 371.956 113.184C371.02 114.12 370.552 115.44 370.552 117.144C370.552 118.896 371.02 120.252 371.956 121.212C372.916 122.148 374.248 122.616 375.952 122.616C377.848 122.616 379.468 121.98 380.812 120.708C381.484 120.036 382.144 119.7 382.792 119.7C383.224 119.7 383.62 119.844 383.98 120.132C384.556 120.588 384.844 121.14 384.844 121.788C384.844 122.196 384.676 122.592 384.34 122.976C383.236 124.152 382 125.016 380.632 125.568C379.288 126.096 377.728 126.36 375.952 126.36ZM398.149 126.36C396.061 126.36 394.201 125.988 392.569 125.244C390.961 124.476 389.701 123.396 388.789 122.004C387.877 120.612 387.421 119.004 387.421 117.18C387.421 115.356 387.877 113.748 388.789 112.356C389.701 110.964 390.961 109.896 392.569 109.152C394.201 108.384 396.061 108 398.149 108C400.237 108 402.085 108.384 403.693 109.152C405.325 109.896 406.597 110.964 407.509 112.356C408.421 113.748 408.877 115.356 408.877 117.18C408.877 119.004 408.421 120.612 407.509 122.004C406.597 123.396 405.325 124.476 403.693 125.244C402.085 125.988 400.237 126.36 398.149 126.36ZM398.149 122.616C399.997 122.616 401.449 122.136 402.505 121.176C403.585 120.216 404.125 118.884 404.125 117.18C404.125 115.476 403.585 114.144 402.505 113.184C401.449 112.224 399.997 111.744 398.149 111.744C396.301 111.744 394.837 112.224 393.757 113.184C392.701 114.144 392.173 115.476 392.173 117.18C392.173 118.884 392.701 120.216 393.757 121.176C394.837 122.136 396.301 122.616 398.149 122.616ZM413.641 126.36C412.897 126.36 412.321 126.168 411.913 125.784C411.505 125.4 411.301 124.872 411.301 124.2V110.16C411.301 109.464 411.493 108.936 411.877 108.576C412.285 108.192 412.849 108 413.569 108C414.289 108 414.853 108.192 415.261 108.576C415.669 108.96 415.873 109.488 415.873 110.16V111.204C417.577 109.068 419.905 108 422.857 108C425.161 108 426.973 108.732 428.293 110.196C429.637 111.636 430.309 113.604 430.309 116.1V124.2C430.309 124.872 430.093 125.4 429.661 125.784C429.229 126.168 428.653 126.36 427.933 126.36C427.189 126.36 426.613 126.168 426.205 125.784C425.797 125.4 425.593 124.872 425.593 124.2V116.1C425.593 114.732 425.257 113.664 424.585 112.896C423.913 112.128 422.977 111.744 421.777 111.744C419.953 111.744 418.537 112.284 417.529 113.364C416.521 114.42 416.017 115.908 416.017 117.828V124.2C416.017 124.872 415.801 125.4 415.369 125.784C414.937 126.168 414.361 126.36 413.641 126.36ZM442.701 126.36C440.829 126.36 439.161 126 437.697 125.28C436.257 124.536 435.129 123.468 434.313 122.076C433.497 120.684 433.089 119.052 433.089 117.18C433.089 115.308 433.473 113.688 434.241 112.32C435.033 110.928 436.161 109.86 437.625 109.116C439.089 108.372 440.817 108 442.809 108C444.273 108 445.509 108.24 446.517 108.72C447.525 109.176 448.473 109.872 449.361 110.808L449.397 100.836C449.397 100.164 449.613 99.636 450.045 99.252C450.477 98.868 451.053 98.676 451.773 98.676C452.493 98.676 453.057 98.868 453.465 99.252C453.897 99.612 454.113 100.14 454.113 100.836V124.2C454.113 124.896 453.897 125.436 453.465 125.82C453.057 126.18 452.493 126.36 451.773 126.36C451.053 126.36 450.477 126.168 450.045 125.784C449.613 125.4 449.397 124.872 449.397 124.2V123.48C447.789 125.4 445.557 126.36 442.701 126.36ZM443.421 122.616C445.293 122.616 446.757 122.136 447.813 121.176C448.869 120.216 449.397 118.884 449.397 117.18C449.397 115.476 448.869 114.144 447.813 113.184C446.757 112.224 445.293 111.744 443.421 111.744C441.669 111.744 440.301 112.224 439.317 113.184C438.333 114.144 437.841 115.476 437.841 117.18C437.841 118.884 438.333 120.216 439.317 121.176C440.301 122.136 441.669 122.616 443.421 122.616ZM466.174 126.36C462.31 126.36 459.466 125.244 457.642 123.012C457.258 122.508 457.066 122.052 457.066 121.644C457.066 121.068 457.366 120.564 457.966 120.132C458.374 119.868 458.77 119.736 459.154 119.736C459.682 119.736 460.174 119.964 460.63 120.42C461.446 121.236 462.238 121.824 463.006 122.184C463.798 122.52 464.77 122.688 465.922 122.688C466.906 122.688 467.734 122.556 468.406 122.292C469.078 122.028 469.414 121.704 469.414 121.32C469.414 120.84 469.138 120.432 468.586 120.096C468.034 119.76 466.918 119.328 465.238 118.8C462.598 117.984 460.726 117.132 459.622 116.244C458.518 115.332 457.966 114.204 457.966 112.86C457.966 111.348 458.614 110.16 459.91 109.296C461.206 108.432 462.994 108 465.274 108C467.026 108 468.61 108.264 470.026 108.792C471.442 109.32 472.474 110.028 473.122 110.916C473.434 111.324 473.59 111.732 473.59 112.14C473.59 112.716 473.302 113.184 472.726 113.544C472.318 113.808 471.898 113.94 471.466 113.94C470.77 113.94 470.134 113.652 469.558 113.076C469.078 112.62 468.454 112.272 467.686 112.032C466.942 111.792 466.126 111.672 465.238 111.672C463.558 111.672 462.718 112.068 462.718 112.86C462.718 113.172 462.85 113.448 463.114 113.688C463.378 113.928 463.846 114.18 464.518 114.444C465.214 114.708 466.294 115.068 467.758 115.524C470.11 116.244 471.754 117.036 472.69 117.9C473.65 118.764 474.13 119.904 474.13 121.32C474.13 122.832 473.434 124.056 472.042 124.992C470.65 125.904 468.694 126.36 466.174 126.36Z" fill="#171717"/>
</svg>
